<svg width="221" height="115" viewBox="0 0 221 115" fill="none" xmlns="http://www.w3.org/2000/svg">
<rect y="15" width="166" height="85" rx="4" fill="#3652E1"/>
<rect width="55" height="85" rx="4" transform="matrix(-1 0 0 1 221 15)" fill="#3A36E1"/>
<path d="M32.9377 77.5909C31.4377 77.5909 30.1498 77.0606 29.0741 76C28.0135 74.9242 27.4832 73.6364 27.4832 72.1364C27.4832 70.6515 28.0135 69.3788 29.0741 68.3182C30.1498 67.2576 31.4377 66.7273 32.9377 66.7273C34.3923 66.7273 35.665 67.2576 36.7559 68.3182C37.8468 69.3788 38.3923 70.6515 38.3923 72.1364C38.3923 73.1364 38.1347 74.053 37.6195 74.8864C37.1195 75.7045 36.4605 76.3636 35.6423 76.8636C34.8241 77.3485 33.9226 77.5909 32.9377 77.5909ZM84.6402 77.5909C83.1402 77.5909 81.8523 77.0606 80.7766 76C79.716 74.9242 79.1857 73.6364 79.1857 72.1364C79.1857 70.6515 79.716 69.3788 80.7766 68.3182C81.8523 67.2576 83.1402 66.7273 84.6402 66.7273C86.0948 66.7273 87.3675 67.2576 88.4584 68.3182C89.5493 69.3788 90.0948 70.6515 90.0948 72.1364C90.0948 73.1364 89.8372 74.053 89.322 74.8864C88.822 75.7045 88.163 76.3636 87.3448 76.8636C86.5266 77.3485 85.6251 77.5909 84.6402 77.5909ZM136.343 77.5909C134.843 77.5909 133.555 77.0606 132.479 76C131.418 74.9242 130.888 73.6364 130.888 72.1364C130.888 70.6515 131.418 69.3788 132.479 68.3182C133.555 67.2576 134.843 66.7273 136.343 66.7273C137.797 66.7273 139.07 67.2576 140.161 68.3182C141.252 69.3788 141.797 70.6515 141.797 72.1364C141.797 73.1364 141.54 74.053 141.025 74.8864C140.525 75.7045 139.865 76.3636 139.047 76.8636C138.229 77.3485 137.328 77.5909 136.343 77.5909ZM188.045 77.5909C186.545 77.5909 185.257 77.0606 184.182 76C183.121 74.9242 182.591 73.6364 182.591 72.1364C182.591 70.6515 183.121 69.3788 184.182 68.3182C185.257 67.2576 186.545 66.7273 188.045 66.7273C189.5 66.7273 190.772 67.2576 191.863 68.3182C192.954 69.3788 193.5 70.6515 193.5 72.1364C193.5 73.1364 193.242 74.053 192.727 74.8864C192.227 75.7045 191.568 76.3636 190.75 76.8636C189.932 77.3485 189.03 77.5909 188.045 77.5909Z" fill="white"/>
<rect x="159" width="10" height="115" rx="5" fill="#C05656"/>
</svg>
